<svg xmlns="http://www.w3.org/2000/svg" viewBox="0 0 5074 1828.101"><path fill="#f59c4c" d="M156 1827.01c-27.461-3.534-54.78-13.912-75.057-28.512-9.997-7.197-26.015-23.639-32.32-33.172-9.984-15.1-16.526-30.956-20.884-50.62L25.5 1704.6v-288l2.256-10.188c8.987-40.579 32.812-74.547 69.617-99.254 21.89-14.695 51.516-25.178 74.127-26.232l7-.326.5 104.097c.55 114.523.042 106.267 6.718 109.058 3.99 1.668 43.586 1.847 68.282.308 68.71-4.282 118.754-24.856 171.64-70.563 5.027-4.345 16.952-14.672 26.5-22.95 64.333-55.771 104.902-81.848 151.372-97.297 34.615-11.508 72.012-16.655 116.015-15.966l20.026.313-52.444 47.5c-127.607 115.576-164.09 148.83-171.144 155.998-16.223 16.483-21.58 36.286-14.993 55.422 4.758 13.825 10.623 20.784 35.314 41.899 58.438 49.976 103.531 85.38 185.714 145.808 33.691 24.773 64.607 41.29 89.478 47.804 29.376 7.695 49.325 2.856 48.876-11.855-.17-5.6-1.578-8.626-9.34-20.076-21.315-31.448-33.523-76.753-39.204-145.5-1.606-19.423-1.558-86.844.076-109 7.064-95.747 29.344-141.821 83.197-172.047 37.326-20.95 79.321-29.94 161.917-34.666 31.8-1.819 285.745-1.822 315.5 0 54.976 3.36 88.665 8.136 117.364 16.636 50.007 14.811 91.193 46.86 122.467 95.295 8.647 13.392 14.318 23.709 28.583 52.002 17.718 35.142 25.837 46.509 36.851 51.597 4.304 1.988 6.342 2.187 22.379 2.187 15.946 0 17.846-.183 19.75-1.905 2.054-1.858 2.106-2.658 2.106-32.605 0-33.842 1.09-51.726 4.01-65.749 9.86-47.365 40.559-86.031 86.587-109.055 17.793-8.9 38.922-15.107 56.153-16.493l6.25-.503v101.937c0 109.254-.155 105.803 4.965 110.373 2.086 1.862 3.91 2.022 26.388 2.326 67.863.917 109.224-6.692 151.919-27.948 22.77-11.336 45.06-26.793 69.27-48.034 66.665-58.49 97.84-81.53 136.325-100.758 43.918-21.942 92.691-31.823 152.492-30.895l19.858.309-111.501 101.225c-61.326 55.673-113.4 103.373-115.72 106-15.472 17.513-18.29 39.328-7.784 60.267 5.527 11.018 23.645 27.75 76.673 70.812 52.353 42.514 137.667 106.717 166.115 125.01 13.165 8.465 37.76 20.724 49.464 24.654 19.427 6.522 37.242 9.526 58.303 9.83 12.855.185 14.053.038 18.733-2.3 6.463-3.23 8.813-7.447 8.147-14.62-.56-6.028-2.954-11.026-10.304-21.516-20.957-29.908-35.087-88.671-38.318-159.362-1.267-27.712-1.278-130.893-.018-172.5 1.034-34.177 2.469-46.902 6.495-57.604 11.652-30.977 35.781-52.868 71.554-64.915 19.666-6.623 40.665-10.16 66.158-11.145l16.714-.646.353 167.405c.32 151.842.512 168.52 2.073 179.405 6.121 42.693 15.939 67.22 34.025 85.002 23.838 23.439 61.646 35.276 126.121 39.487 19.718 1.288 119.431 1.281 140.5-.01 63.584-3.895 103.358-16.3 126.519-39.461 21.277-21.277 31.683-53.397 35.48-109.519.573-8.46.986-77.314.992-165.277l.01-150.776 175.25.29 175.25.29 12.5 2.308c22.443 4.142 42.542 11.967 58.656 22.838 17.312 11.679 18.62 13.05 129.47 135.827 53.192 58.916 65.312 71.434 72.175 74.55 5.735 2.604 14.576 2.563 19.778-.09 6.895-3.518 17.649-14.73 73.816-76.953 88.378-97.907 103.876-114.752 111.949-121.671 22.308-19.122 46.766-30.187 77.511-35.067 10.508-1.668 31.547-1.77 368.145-1.77 360.822 0 373.664.11 415 3.536 67.392 5.585 107.59 16.75 141.782 39.377 42.686 28.248 63.298 72.326 70.653 151.088 2.43 26.022 3.415 72.767 2.207 104.75-2.106 55.769-6.402 86.487-16.251 116.21-14.429 43.542-37.495 69.479-80.022 89.977-39.779 19.174-84.517 27.06-173.37 30.558-32.56 1.282-240.803 1.277-272.5-.01-100.733-4.08-148.134-15.172-192.5-45.049-41.015-27.62-65.096-73.036-74.995-141.44-3.94-27.226-4.938-43.892-4.942-82.5 0-27.641.425-40.747 1.762-54 3.66-36.266 9.82-73.652 19.274-117 5.65-25.898 6.239-35.726 2.59-43.168-3.072-6.268-9.574-12.053-16.77-14.92-5.64-2.249-7.25-2.376-34.214-2.706-39.07-.477-46.348.868-62.204 11.497-12.637 8.47-42.709 39.1-93.07 94.797-52.785 58.378-136.618 150.694-154.834 170.5-15.57 16.93-21.394 24.736-24.41 32.717-2.174 5.75-2.19 6.304-2.686 94.283l-.5 88.5-2.33 3.265c-5.075 7.117.039 6.705-86.976 7.009-51.301.18-79.62-.081-82.12-.753-4.746-1.279-8.592-4.243-10.844-8.359-1.593-2.91-1.77-10.246-2.23-92.162l-.5-89-2.7-5.76c-3.29-7.02-8.787-14.241-20.358-26.74-12.323-13.312-98.652-108.24-156.418-172-71.292-78.688-85.337-92.537-102.536-101.1-12.485-6.218-19.431-7.036-56.837-6.69l-31.493.29-2.708 2.5c-5.733 5.293-5.45-1.75-5.45 135.857 0 125.901-.44 147.615-3.58 177.106-5.216 48.996-16.916 84.877-35.942 110.228-27.285 36.355-77.741 60.189-145.478 68.72-57.895 7.29-117.567 8.474-392 7.777-202.903-.515-230.697-.94-275.14-4.203-129.776-9.53-196.963-39.245-347.86-153.846-36.637-27.825-43.022-32.531-53-39.065-36.987-24.22-71.635-37.025-110-40.65-6.875-.65-25.85-1.236-42.167-1.303-28.638-.116-29.764-.048-32.5 1.973-1.558 1.152-3.37 3.627-4.027 5.5-.897 2.56-1.208 32.17-1.25 119.156l-.057 115.751h-2.894c-6.157 0-24.06-2.186-33.606-4.104-22.631-4.547-45.297-14.534-62.651-27.607-23.852-17.967-39.787-42.715-47.857-74.32-4.782-18.73-5.22-25.305-5.715-85.721l-.468-57.253-2.54-1.997c-2.292-1.804-4.06-1.998-18.224-1.998-15.13 0-15.88.098-21.116 2.75-10.321 5.228-17.432 17.02-33.918 56.25-25.948 61.742-50.723 98.69-85.967 128.203-49.54 41.483-103.418 55.954-226.544 60.846-38.438 1.527-506.992.735-534-.903-81.149-4.92-122.284-11.517-166.466-26.695-57.5-19.754-106.226-49.1-202.35-121.866-60.52-45.814-67.995-50.928-92.187-63.062-39.134-19.628-74.95-26.43-133.544-25.361-20.2.368-22.954 1.08-24.998 6.456-.587 1.544-.955 47.553-.955 119.447v116.935l-8.25-.127c-4.537-.07-11.175-.503-14.75-.963zm1161.5-74.92c84.305-5.506 125.668-24.44 145.053-66.397 9.686-20.964 14.985-47.443 17.53-87.592 1.542-24.31.656-87.331-1.497-106.5-5.168-46.017-14.548-72.595-32.297-91.511-23.743-25.304-61.196-37.606-127.789-41.974-19.9-1.305-162.165-1.295-181.67.013-64.585 4.332-102.637 16.528-126.172 40.442-17.134 17.41-27.316 44.21-32.116 84.53-4.657 39.125-4.657 104.875 0 144 8.214 69.004 32.666 100.228 90.085 115.033 19.247 4.962 47.338 8.868 73.873 10.271 15.42.816 161.724.552 175-.315zm3420-.023c98.643-6.594 138.62-33.606 152.386-102.966 10.163-51.205 9.21-151.399-1.873-196.783-6.32-25.879-14.645-41.822-29.15-55.823-23.714-22.888-60.974-34.31-125.363-38.428-27.461-1.757-160.476-.758-179.061 1.345-27.316 3.09-44.26 6.363-60.549 11.696-63.922 20.93-82.87 63-82.87 183.993 0 79.09 8.385 121.586 29.375 148.863 21.782 28.308 63.606 43.522 132.105 48.054 17.747 1.174 147.595 1.213 165 .05z"/><path fill="#f27803" d="M161.402 1827.013c-37.69-3.366-72.317-18.764-96.433-42.88-23.276-23.276-35.993-51.93-38.965-87.797-1.283-15.489-1.271-259.431.013-272.735 3.2-33.125 15.54-61.544 37.673-86.757 26.969-30.72 68.871-52.535 106.485-55.436l7.825-.603v102.18c0 112.39-.276 107.37 6.083 110.66 2.922 1.51 7.093 1.625 42.33 1.17 41.39-.535 50.241-1.282 74.48-6.28 41.217-8.5 76.657-25.715 113.107-54.943 6.875-5.513 19.925-16.556 29-24.54 83.166-73.171 131.086-101.408 194.004-114.32 24.07-4.938 61.566-8.084 88.726-7.443l13.23.312-44.209 40c-85.547 77.4-175.307 159.288-180.442 164.615-21.682 22.491-21.926 52.591-.617 76.279 15.903 17.68 111.303 94.704 181.808 146.79 46.832 34.598 62.09 44.525 85.73 55.772 42.485 20.215 79.838 20.001 79.744-.456-.023-5.115-2.363-10.205-9.447-20.548-22.2-32.417-35.2-82.913-39.63-153.952-1.484-23.784-.585-91.546 1.506-113.5 5.39-56.602 16.75-93.55 37.101-120.667 24.603-32.781 68.5-55.255 126.496-64.758 44.38-7.273 81.876-9.022 209-9.747 124.314-.71 181.075.587 229 5.23 75.656 7.331 119.035 24.352 159.382 62.535 24.138 22.845 40.956 47.585 64.924 95.507 5.804 11.604 12.855 24.998 15.67 29.763 6.417 10.864 15.531 20.714 22.278 24.077 4.932 2.457 5.852 2.56 22.832 2.56 15.925 0 17.928-.19 20.053-1.91l2.361-1.91.59-41.34c.663-46.442 1.258-51.84 7.953-72.082 13.664-41.318 42.558-73.323 84.184-93.25 17.957-8.597 35.814-13.776 52.304-15.17l7.469-.631v102.896c0 101.077.039 102.955 2 106.172 1.099 1.801 3.151 3.714 4.562 4.25 3.394 1.29 62.47 1.247 77.934-.058 36.738-3.098 69.065-11.768 98.5-26.418 25.072-12.477 45.867-27.233 77-54.635 87.802-77.282 135.301-105.482 199.452-118.413 24.414-4.921 61.01-7.96 88.08-7.313l13.03.312-112.392 102c-62.207 56.455-114.371 104.558-116.824 107.73-16.706 21.599-15.922 47.177 2.115 69.01 7.325 8.868 56.69 50.584 102.523 86.637 29.767 23.416 80.64 61.567 115.234 86.417 31.453 22.593 61.512 37 88.953 42.634 18.945 3.889 43.873 5.298 52.307 2.956 5.186-1.44 11.487-7.68 11.628-11.517.337-9.109-1.23-13.246-9.644-25.466-20.739-30.12-34.133-82.58-38.528-150.901-1.497-23.28-.668-203.535.997-216.5 2.314-18.025 6.895-30.623 16.186-44.514 19.353-28.932 55.067-46.994 103.706-52.446 6.973-.782 18.415-1.727 25.427-2.101l12.75-.68v152.01c0 93.035.404 158.938 1.04 169.87 5.289 90.907 32.57 127.93 105.2 142.767 32.507 6.64 55.038 8.062 127.76 8.062 61.48 0 76.064-.567 103-4.002 61.334-7.823 95.785-27.33 112.424-63.658 10.19-22.247 15.292-49.232 17.548-92.808.583-11.258 1.013-80.051 1.019-162.75l.013-143.25 162.25.015c95.832.01 168.186.418 176.75 1 42.2 2.866 71.055 14.104 98.49 38.359 7.296 6.45 28.33 29.378 111.16 121.172 30.296 33.575 57.956 63.653 61.467 66.84 8.604 7.812 13.664 10.633 20.298 11.318 4.688.484 6.353.155 11.176-2.204 7.928-3.88 17.18-13.347 65.958-67.5 72.58-80.578 106.968-118.253 115.087-126.09 19.169-18.503 41.779-30.99 66.981-36.99 23.907-5.69.995-5.306 338.883-5.684 299.683-.335 395.32.272 437.5 2.778 70.384 4.183 109.277 12.174 144.5 29.691 16.823 8.367 29.666 17.374 41.002 28.754 29.615 29.734 43.218 68.466 49.71 141.541 1.754 19.746 1.754 110.254 0 130-5.303 59.692-14.767 93.78-34.029 122.561-14.465 21.615-31.857 35.712-61.683 49.998-41.825 20.034-90.405 27.641-195 30.536-48.487 1.342-232.619.625-263-1.025-92.251-5.008-134.438-15.427-177.5-43.838-14.98-9.883-31.901-26.599-41.299-40.798-19.907-30.078-31.45-67.58-37.375-121.434-2.614-23.763-2.64-98.208-.042-121.5 3.777-33.856 8.033-59.472 17.74-106.784 6.302-30.715 7.029-38.268 4.421-45.921-3.551-10.422-14.399-17.96-28.445-19.768-9.6-1.235-36.99-1.254-52.64-.037-31.365 2.44-37.623 7.82-137.836 118.516a52771.003 52771.003 0 0 1-98 107.88c-59.961 65.788-62.563 68.73-66.42 75.114-6.214 10.289-6.105 8.454-6.105 101.999v85.078l-2.25 4.453c-1.237 2.45-3.779 5.47-5.647 6.712l-3.398 2.258h-161.409l-3.306-2.25c-1.818-1.237-4.247-3.52-5.398-5.072-2.076-2.802-2.095-3.479-2.592-91.5l-.5-88.678-2.214-5.41c-1.219-2.976-3.745-7.7-5.614-10.5-3.773-5.65-3.605-5.461-47.197-53.15-17.064-18.666-53.048-58.24-79.965-87.94-90.053-99.364-97.915-107.931-112.496-122.578-19.65-19.74-31.61-28.403-44.914-32.537-6.987-2.172-31.638-3.592-55.87-3.219-20.88.321-21.857.425-24.995 2.663-6.483 4.624-6.035-5.179-6.517 142.72-.453 138.934-.627 145.403-4.82 179.451-8.412 68.31-29.608 108.759-70.522 134.58-41.723 26.33-82.993 36.034-176.876 41.586-27.155 1.606-477.61 2.362-530.848.891-69.019-1.907-107.041-5.218-145.152-12.642-85.636-16.68-148.86-50.749-280.62-151.212-15.192-11.583-32.517-24.404-38.5-28.49-28.444-19.423-54.472-31.691-81.98-38.64-20.03-5.058-31.537-6.18-69.459-6.778-30.772-.484-34.906-.364-37.733 1.098-6.6 3.413-6.208-4.435-6.208 124.21v116.703l-11.75-.632c-30.685-1.65-63.803-13.206-86.354-30.131-25.443-19.095-41.862-45.305-49.251-78.62-4.134-18.64-4.645-27.79-4.645-83.318 0-32.339-.38-53.477-.993-55.088-1.764-4.639-6.483-5.738-22.935-5.342-16.503.397-19.26 1.25-26.07 8.06-6.892 6.892-12.866 17.924-25.488 47.073-15.43 35.632-19.539 44.33-27.96 59.192-14.095 24.88-27.892 42.795-47.82 62.096-45.188 43.764-92.026 61.268-184.234 68.851-44.356 3.648-55.891 3.832-268 4.273-248.521.516-308.463-.346-365-5.25-96.526-8.372-155.678-29.081-237-82.973-30.062-19.922-48.933-33.669-121.664-88.626-11.915-9.004-26.315-19.265-32-22.803-23.978-14.924-48.198-25.656-71.21-31.553-22.26-5.705-31.378-6.644-70.199-7.224-39.176-.586-39.668-.516-42.792 6.066-1.484 3.128-1.635 14.198-1.635 120.044v116.6l-3.75-.138c-2.062-.076-7.844-.503-12.848-.95zm1164.098-74.831c43.517-3.817 70.513-9.933 93-21.067 31.204-15.451 47.808-40.25 56.503-84.391 8.94-45.391 8.895-138.822-.091-184.123-13.77-69.419-48.936-94.953-143.412-104.134-21.412-2.081-146.468-3.088-181.055-1.459-44.723 2.107-72.15 6.4-97.088 15.198-38.15 13.46-58.798 36.444-69.289 77.13-2.857 11.08-4.956 23.486-7.15 42.265-1.648 14.1-2.342 92.625-.991 112.204 5.71 82.774 26.23 117.077 80.952 135.326 23.4 7.804 56.227 12.627 97.62 14.342 19.72.817 158.954-.234 171-1.291zm3420 0c56.525-5.066 89.472-16.068 112.18-37.459 23.752-22.372 34.538-54.077 38.397-112.862 1.607-24.482.678-94.306-1.515-113.756-7.634-67.738-28.138-99.038-75.92-115.895-25.205-8.892-52-13.071-97.466-15.2-28.736-1.347-138.276-.621-156.676 1.037-42.184 3.802-69.348 9.971-90.844 20.63-23.426 11.618-39.139 28.998-48.326 53.458-9.31 24.787-13.308 53.298-14.86 105.97-.7 23.76.814 66.138 3.066 85.85 4.935 43.176 15.344 70.266 34.103 88.75 24.513 24.153 67.155 36.892 135.096 40.357 22.514 1.149 147.684.472 162.765-.88z"/><path fill="#d5190b" d="M5.041 1076.142v-38h5074v76h-5074ZM4061.07 959.453c-13.967-4.796-19.596-10.022-31.781-29.507-8.742-13.98-13.998-25.91-14.948-33.931-.56-4.726-.44-5.015 4.12-9.89 2.585-2.763 6.27-8.33 8.189-12.372 3.475-7.317 3.485-7.378 2.27-13.967l-1.219-6.619 5.994-6.262c7.421-7.754 12.018-15.584 21.696-36.956 10.534-23.263 14.527-32.818 21.648-51.807 3.403-9.075 9.777-23.428 14.163-31.896 13.438-25.94 16.574-38.984 15.548-64.663-.309-7.733-.257-14.483.115-15 2.506-3.483 4.531-3.864 23.588-4.438 18.353-.553 19.452-.701 24.848-3.341 13.036-6.378 24.327-25.873 30.788-53.162 3.278-13.84 6.226-41.768 5.648-53.5-.693-14.062-1.887-17.262-9.159-24.546-6.904-6.916-11.586-9.454-17.436-9.454-3.796 0-4.8.668-13.596 9.047-5.223 4.976-11.41 9.917-13.75 10.979-5.926 2.69-15.396 2.623-21.297-.15-8.777-4.127-18.457-18.124-18.457-26.69 0-3.802.543-4.964 3.882-8.303 5.363-5.363 8.745-5.238 20.758.765l9.3 4.647 4.344-1.66c6.2-2.367 15.668-10.368 18.394-15.542 1.962-3.723 2.322-5.896 2.322-14 0-15.643 5.198-42.765 9.954-51.945 4.117-7.946 14.765-16.46 37.046-29.62 15.27-9.02 18.398-11.197 32.5-22.614 29.246-23.678 51.656-44.43 65.98-61.096 5.219-6.073 15.39-19.754 22.603-30.403 16.927-24.99 43.208-57.941 57.356-71.915 15.79-15.593 28.452-22.564 48.556-26.729 22.62-4.686 39.228 1.802 58.952 23.03 7.4 7.962 46.348 59.284 92.005 121.231 13.386 18.162 34.643 38.471 60.923 58.206 20.071 15.073 28.5 19.012 40.677 19.012 9.8 0 15.96-2.584 23.033-9.661 10.038-10.045 15-23.186 16.082-42.589.662-11.864-.418-20.462-4.215-33.576-3.555-12.275-11.494-33.22-17.902-47.23-7.108-15.539-8.366-19.798-9.48-32.08-.826-9.118-1.337-11.013-4.177-15.5-11.988-18.943-19.512-34.56-25.344-52.598-5.567-17.223-6.627-25.346-7.568-58.016-.514-17.854-1.465-33.25-2.408-39-2.44-14.87-2.153-18.568 2.107-27.115 4.768-9.567 14.136-19.22 20.253-20.867 5.876-1.582 11.235-.46 16.842 3.525 2.599 1.847 6.49 4.618 8.646 6.158 3.909 2.79 3.988 2.801 24 3.331l20.08.532 18 7.847c9.9 4.316 22.724 9.341 28.5 11.167 9.81 3.103 11.757 3.367 29.654 4.02l19.155.699 7.825-3.765c7.283-3.504 8.313-3.733 14.846-3.303 8.24.542 15.02 3.618 28.985 13.15 10.543 7.197 26.657 22.252 30.022 28.049 3.234 5.572 5.512 15.048 5.512 22.933 0 6.166-.214 6.787-3.466 10.039-3.8 3.799-13.822 8.984-20.062 10.378-2.184.488-7.122.536-10.972.106-9.216-1.028-11.725-1.027-13.356.01-2.084 1.321-3.13 9.14-2.149 16.078 1.713 12.118-2.777 17.518-14.573 17.527-11.603.01-20.102-8.258-23.93-23.28-4.257-16.708-4.464-17.227-7.626-19.15-1.68-1.021-5.467-2.16-8.416-2.527-7.307-.913-12.472 1.506-21.686 10.159-3.995 3.751-9.827 8.988-12.96 11.638-8.637 7.303-9.307 9.766-9.291 34.166.01 16.42.425 22.326 2.319 33 3.836 21.624 10.103 52.311 13.172 64.5 4.67 18.549 7.613 36.307 12.437 75.057 6.208 49.879 6.837 57.734 6.919 86.443.083 29.099-1.043 39.282-6.077 55-15.763 49.209-37.304 77.945-71.466 95.338-16.892 8.6-27.77 11.146-47.666 11.156-9.247.004-13.197.408-15.726 1.608-4.334 2.057-10.132 8.48-12.513 13.863-1.764 3.989-1.78 4.73-.319 14.122.85 5.452 1.963 15.988 2.475 23.413 1.768 25.63 1.907 26.217 9.798 41.382 3.924 7.54 7.134 14.308 7.134 15.04 0 .733.711 1.923 1.58 2.644 3.222 2.674 24.581-1.878 58.961-12.565 19.664-6.113 22.46-7.77 22.46-13.308 0-8.71-8.224-15.05-31.811-24.53-9.883-3.972-12.824-5.76-23.304-14.173-13.161-10.565-25.45-21.806-26.997-24.698-1.64-3.063 4.657-4.987 19.111-5.84 11.77-.693 13.162-1.007 23.828-5.38l11.327-4.644 5.73 5.286c6.484 5.982 33.27 27.271 41.78 33.205 3.09 2.155 12.184 7.604 20.209 12.108 13.677 7.676 14.74 8.49 16.986 12.994 2.854 5.722 3.906 15.626 2.208 20.773-1.612 4.883-11.944 14.347-20.6 18.868-10.502 5.487-19.264 7.783-33.938 8.897-7.166.544-16.935 1.432-21.708 1.974-13.86 1.571-39.329 11.276-49.711 18.94l-4.39 3.241.554 9.643c.304 5.303 1.918 19.093 3.585 30.643 1.668 11.55 3.956 27.525 5.086 35.5 3.238 22.866 6.045 32.431 14.527 49.5 4.1 8.25 9.608 17.642 12.24 20.871 2.633 3.23 7.037 9.53 9.787 14 3.638 5.915 5.953 8.582 8.5 9.792 1.925.915 10.25 2.86 18.5 4.322 12.409 2.199 16.37 3.35 22.93 6.662 13.211 6.671 24.57 15.335 24.57 18.741 0 3.164-4.537 6.075-15.11 9.694-9.132 3.126-11.9 4.596-17.053 9.059-7.219 6.251-9.504 6.858-22.728 6.038-18.41-1.143-30.64-6.187-41.622-17.167-16.978-16.978-20.858-27.591-30.439-83.263-8.212-47.72-7.397-45.385-29.847-85.568-6.09-10.9-11.36-21.132-11.713-22.738-.353-1.606-.997-3.14-1.432-3.409-.434-.268-9.512.173-20.173.982-34.03 2.58-43.066 1.714-57.41-5.503-10.227-5.146-24.576-16.603-26.883-21.465-2.225-4.688-1.508-7.806 3.234-14.074 2.07-2.736 5.61-7.674 7.865-10.974 6.594-9.647 11.67-13.5 17.785-13.5 1.289 0 10.568 4.157 20.62 9.24l18.278 9.239 12.225.01c6.723.006 12.6-.363 13.06-.819.46-.456.992-4.281 1.183-8.5.597-13.193-2.55-21.909-14.089-39.03-2.728-4.048-9.175-14.711-14.328-23.696-12.058-21.03-17.891-30.093-20.129-31.274-.999-.528-20.406-1.178-43.794-1.467-30.664-.38-55.09-1.35-90.5-3.596-49.342-3.13-79.104-3.85-89-2.153-4.043.694-16.707 6.636-47.807 22.432-42.388 21.528-46.75 23.39-70.446 30.054-7.014 1.973-15.261 4.697-18.326 6.052-15.123 6.688-55.511 39.596-73.649 60.008-8.046 9.055-34.517 47.589-45.188 65.782-7.407 12.626-10.709 19.994-15.5 34.583-2.143 6.53-7.577 19.918-12.075 29.753-16.174 35.37-17.287 38.221-16.757 42.925.501 4.447 5.212 15.49 8.693 20.38 1.817 2.551 17.527 12.204 32.599 20.028 3.324 1.726 9.11 3.78 12.856 4.563 7.264 1.52 12.204 3.896 13.983 6.725.84 1.337.678 2.377-.704 4.5-.99 1.518-2.68 4.786-3.759 7.26-5.981 13.73-9.276 15.846-30.453 19.56-17.208 3.017-21.02 2.986-30.439-.248zm482.086-469.306c4.155-.767 6.13-1.793 8.636-4.485l3.25-3.49-.14-42.765c-.076-23.52-.414-61.31-.75-83.977l-.61-41.211-26.926-35.039-26.925-35.038h-128.371l-29.139 37.68-29.139 37.68.031 72.57c.017 40.324.457 75.854.99 79.961 1.057 8.141 3.022 12.314 7.302 15.505 2.812 2.096 3.21 2.106 97.5 2.617 52.073.282 100.128.62 106.79.75 6.663.13 14.538-.21 17.5-.758zm-253.975-5.916 2.361-1.911.282-72.285c.155-39.756.024-72.957-.292-73.78-.411-1.071-3.68 1.602-11.532 9.43l-10.958 10.923v60.702c0 39.75.36 61.674 1.045 63.517 1.572 4.233 3.716 5.315 10.535 5.315 4.612 0 6.803-.489 8.56-1.911zm305.67-.115c2.686-2.882 3.181-14.617 3.187-75.49V357.61l-11.496-11.468-11.5-11.467v73.099c0 72.438.02 73.122 2.073 75.733 1.88 2.391 2.71 2.635 8.96 2.635 5.631 0 7.234-.37 8.777-2.026zm158.642-406.065c7.679-6.742 6.372-17.846-2.649-22.511-10.905-5.64-23.356 6.395-18.274 17.663 2.336 5.181 6.692 7.901 12.687 7.922 3.858.014 5.356-.545 8.236-3.074zm-263.037 867.378c-11.772-4.08-28.314-14.39-35.785-22.302-13.102-13.878-16.526-19.388-27.605-44.432-12.772-28.867-18.408-37.852-57.12-91.053-34.2-47.001-67.402-94.61-71.272-102.2-3.993-7.831-1.804-11.602 21.95-37.8 8.385-9.247 11.5-14.36 15.945-26.166 3.023-8.033 5.255-10.657 11.965-14.072l4.992-2.54 20.508.675c27.234.897 29.508 1.21 30.9 4.265 2.928 6.428 1.216 10.94-10.408 27.42-11.056 15.675-12.797 19.504-15.938 35.06-3.639 18.023-4.14 28.009-2.099 41.858 2.376 16.115 5.851 26.017 11.743 33.454 6.133 7.742 8.277 11.745 10.165 18.972.838 3.212 3.16 8.488 5.157 11.725 1.998 3.237 8.353 14.99 14.122 26.117 5.769 11.128 13.783 25.182 17.809 31.232 13.523 20.322 45.854 55.55 55.497 60.47 2.86 1.458 7.479 2.246 17.714 3.021 31.686 2.4 38.135 4.968 44.758 17.826 3.063 5.946 1.986 8.14-6.412 13.079-4.125 2.425-10.536 6.412-14.246 8.86-8.201 5.412-16.78 8.256-26.754 8.871-6.38.394-8.707.044-15.585-2.34zM438.041 877.18c-127.923-6.125-227.722-45.971-303.093-121.015-34.696-34.546-59.15-69.996-76.927-111.522-32.396-75.674-36.764-168.615-11.512-245 9.82-29.707 20.454-51.573 37.682-77.486 31.043-46.693 76.554-88.952 129.608-120.346 91.92-54.394 214.499-75.286 337.74-57.563 102.701 14.769 195.113 60.868 256.218 127.812 13.002 14.245 14.967 16.831 13.683 18.012-.494.455-15.922 10.826-34.284 23.047l-33.385 22.22-10.486-11.14c-54.779-58.193-130.772-95.522-216.744-106.468-32.53-4.141-78.524-4.61-107.5-1.095-72.662 8.815-139.12 35.63-192 77.47-12.43 9.835-36.82 34.058-46.357 46.037-32.613 40.972-52.456 89.722-57.564 141.424-1.366 13.826-1.392 43.216-.05 56.72 4.356 43.847 18.703 84.657 42.13 119.84 32.556 48.891 83.97 90.613 142.341 115.51 70.74 30.172 162.689 39.19 244.849 24.016 71.971-13.292 138.025-47.221 190.193-97.693l11.042-10.683 33.938 22.374c18.666 12.305 34.106 22.875 34.31 23.487.499 1.498-20.677 22.92-34.332 34.73-64.43 55.73-148.684 91.428-243.5 103.173-32.537 4.03-74.251 5.659-106 4.139zm785-4.067c-70.945-3.866-131.754-26.695-185.5-69.642-13.45-10.748-35.393-32.516-45.691-45.328-30.439-37.869-48.825-81.232-54.908-129.5-1.878-14.902-1.606-49.298.513-65 2.258-16.727 8.253-40.242 14.016-54.981 13.233-33.844 32.21-62.223 60.543-90.538 63.952-63.911 149.118-96.657 243.527-93.633 10.45.335 23.275 1.092 28.5 1.682 74.29 8.391 132.654 36.604 182.75 88.34l11.25 11.618v-88.988h82v523h-82v-83.254l-7.251 6.877c-54.484 51.673-115.946 80.226-188.934 87.77-18.93 1.957-40.98 2.548-58.815 1.577zm67.5-70.397c13.888-2.202 36.91-8.035 49.464-12.532 75.1-26.902 124.685-79.675 138.565-147.471 6.803-33.228 5.16-69.539-4.562-100.834-20.087-64.654-80.097-118.912-152.412-137.802-42.842-11.192-91-11.557-134.055-1.016-47.258 11.57-91.208 37.993-119.577 71.893-31.69 37.87-47.846 79.877-47.905 124.56-.058 44.238 16.087 86.263 47.858 124.575 34.692 41.834 91.784 72.174 148.624 78.982 4.95.593 10.125 1.268 11.5 1.501 6.145 1.042 53.001-.35 62.5-1.856zm433.5-204.073v-261.5h83v83.422l6.641-7.461c24.345-27.348 51.385-48.95 76.922-61.453 71.652-35.082 152.274-36.568 218.937-4.036 37.125 18.117 59.229 40.72 78.75 80.528 3.91 7.975 7.288 14.722 7.505 14.992.217.27.792-.218 1.278-1.086 2.619-4.68 19.981-26.7 27.63-35.044 22.686-24.744 46.427-42.549 75.837-56.874 38.386-18.696 78.912-27.251 121.5-25.648 58.059 2.186 105.669 21.764 140.561 57.802 28.645 29.585 43.014 61.935 50.35 113.358 4.467 31.311 4.42 29.358 4.809 200.25l.374 164.25h-85.094V706.753c0-93.288-.405-160.387-1.033-171.25-3.315-57.347-10.825-80.437-33.454-102.86-13.38-13.258-29.291-22.741-48.513-28.914-18.323-5.885-27.545-7.095-53.5-7.022-21.08.059-24.085.293-36 2.8-57.687 12.136-103.547 46.913-126.526 95.95-9.908 21.142-15.347 46.22-20.106 92.685-.813 7.946-1.302 51.753-1.58 141.75l-.403 130.25H2128.041v-152.25c0-88.995-.415-158.897-.994-168.25-2.519-40.711-7.19-64.345-16.106-81.5-15.73-30.264-47.907-52.37-86.896-59.7-13.179-2.478-49.462-2.483-62.583-.01-64.717 12.201-116.805 53.877-137.548 110.052-6.195 16.774-11.384 42.588-14.505 72.157-1.471 13.938-1.74 32.98-2.09 147.75l-.4 131.75h-82.874v-261.5zm1036-99.5v-361h84v722h-84zm223 99.5v-261.5h83v523h-83zm235 0v-261.5h83v43c0 23.65.296 43 .659 43 .362 0 7.225-6.42 15.25-14.266 30.92-30.232 60.712-50.264 95.51-64.221 35.781-14.352 66.877-20.063 108.581-19.94 20.022.058 27.113.474 38.797 2.279 48.796 7.534 88.763 26.474 120.57 57.136 41.759 40.255 57.7 85.98 61.616 176.735.54 12.528.99 84.99 1 161.027l.017 138.25h-84l-.01-146.75c-.01-139.373-.404-164.179-3.04-190.75-6.609-66.601-40.47-109.517-97.859-124.024-16.527-4.178-29.975-5.707-51.092-5.808-36.047-.173-62.181 5.558-92.52 20.29-46.695 22.672-82.158 60.39-98.76 105.042-12.192 32.789-14.622 73.697-14.685 247.25l-.034 94.75h-83zm-209.5-359.141c-8.843-1.868-21.421-7.938-28.333-13.672-14.33-11.888-21.167-25.677-21.167-42.687 0-14.783 5.228-27.208 16-38.03 12.92-12.977 26.975-18.99 46.162-19.749 14.555-.575 23.952 1.28 35.838 7.075 11.72 5.713 23.395 17.107 28.436 27.752 10.142 21.415 5.941 43.86-11.432 61.083-16.65 16.505-41.25 23.35-65.504 18.228z"/></svg>